<svg xmlns="http://www.w3.org/2000/svg" xmlns:xlink="http://www.w3.org/1999/xlink" width="100" zoomAndPan="magnify" viewBox="0 0 75 74.999997" height="100" preserveAspectRatio="xMidYMid meet" version="1.0"><defs><clipPath id="96c57c177e"><path d="M 38 20 L 48.355469 20 L 48.355469 66.261719 L 38 66.261719 Z M 38 20 " clip-rule="nonzero"/></clipPath><clipPath id="b100fdf8c3"><path d="M 25.105469 5.511719 L 39 5.511719 L 39 16 L 25.105469 16 Z M 25.105469 5.511719 " clip-rule="nonzero"/></clipPath><clipPath id="e9c4363047"><path d="M 37 11 L 48.355469 11 L 48.355469 23 L 37 23 Z M 37 11 " clip-rule="nonzero"/></clipPath><clipPath id="14bec650b2"><path d="M 27.953125 28 L 36 28 L 36 37 L 27.953125 37 Z M 27.953125 28 " clip-rule="nonzero"/></clipPath><clipPath id="17197dd246"><path d="M 37 26.75 L 50.453125 26.75 L 50.453125 42.5 L 37 42.5 Z M 37 26.75 " clip-rule="nonzero"/></clipPath><clipPath id="8322d19bff"><path d="M 41 42 L 42 42 L 42 42.5 L 41 42.5 Z M 41 42 " clip-rule="nonzero"/></clipPath></defs><g clip-path="url(#96c57c177e)"><path fill="#ff66c4" d="M 43.269531 23.300781 C 43.1875 24.019531 42.785156 24.746094 42.375 25.476562 C 41.859375 26.359375 41.324219 27.25 41.164062 28.398438 C 40.980469 29.703125 41.953125 30.910156 43.210938 32.246094 C 44.300781 33.40625 45.632812 34.589844 46.492188 36.242188 C 47.351562 37.894531 47.273438 40.082031 46.53125 43.054688 C 44.667969 50.929688 36.722656 60.253906 42.335938 66.296875 C 40.511719 63.328125 41.4375 59.613281 43.023438 55.480469 C 44.605469 51.347656 46.867188 46.863281 47.769531 42.914062 C 48.589844 39.488281 48.640625 36.980469 47.660156 35.25 C 46.683594 33.523438 45.304688 32.449219 44.148438 31.292969 C 43.117188 30.285156 42.328125 29.367188 42.425781 28.652344 C 42.550781 27.746094 43.015625 26.929688 43.460938 26.125 C 43.90625 25.316406 44.421875 24.351562 44.527344 23.347656 C 44.710938 21.625 43.652344 20.710938 42.359375 20.359375 C 41.070312 20.011719 39.546875 20.265625 38.796875 21.433594 C 40.460938 20.683594 43.511719 21.101562 43.269531 23.300781 Z M 43.269531 23.300781 " fill-opacity="1" fill-rule="nonzero"/></g><path fill="#ff66c4" d="M 31.796875 15.808594 C 30.566406 15.929688 29.445312 16.550781 29.007812 17.726562 C 28.230469 19.792969 29.9375 21.898438 31.164062 23.746094 C 32.765625 26.128906 34.589844 29.105469 33.902344 30.890625 C 33.652344 31.550781 32.898438 32.109375 32.058594 32.757812 C 29.503906 34.792969 28.792969 37.054688 28.980469 38.957031 C 29.171875 40.855469 30.273438 42.4375 31.308594 43.714844 C 31.542969 43.996094 31.773438 44.25 31.988281 44.480469 L 32.140625 44.480469 C 31.90625 44.097656 31.695312 43.734375 31.503906 43.386719 C 28.316406 37.648438 30.894531 35.421875 32.960938 33.871094 C 33.902344 33.160156 34.753906 32.535156 35.101562 31.628906 C 36.003906 29.265625 33.972656 25.914062 32.179688 23.195312 C 31.28125 21.808594 29.625 19.710938 30.195312 18.222656 C 30.464844 17.519531 31.144531 17.15625 31.90625 17.0625 C 35.199219 16.621094 38.160156 21.027344 37.644531 24.078125 C 39.082031 20.1875 35.765625 15.394531 31.796875 15.808594 Z M 31.796875 15.808594 " fill-opacity="1" fill-rule="nonzero"/><path fill="#ff66c4" d="M 37.125 41.257812 C 38.070312 41.292969 38.949219 41.734375 39.335938 42.609375 C 40.015625 44.160156 38.800781 45.839844 37.945312 47.308594 C 36.8125 49.203125 35.542969 51.554688 36.140625 52.894531 C 36.359375 53.390625 36.957031 53.785156 37.625 54.246094 C 39.671875 55.695312 40.308594 57.398438 40.238281 58.863281 C 40.167969 60.324219 39.398438 61.582031 38.660156 62.605469 C 38.492188 62.828125 38.324219 63.03125 38.171875 63.214844 L 38.058594 63.226562 C 38.21875 62.929688 38.363281 62.636719 38.496094 62.363281 C 40.703125 57.832031 38.628906 56.238281 36.984375 55.132812 C 36.234375 54.628906 35.554688 54.191406 35.25 53.503906 C 34.460938 51.738281 35.878906 49.085938 37.136719 46.925781 C 37.765625 45.828125 38.949219 44.15625 38.445312 43.035156 C 38.21875 42.507812 37.675781 42.261719 37.085938 42.222656 C 34.550781 42.027344 32.472656 45.519531 32.992188 47.835938 C 31.726562 44.910156 34.066406 41.109375 37.125 41.257812 Z M 37.125 41.257812 " fill-opacity="1" fill-rule="nonzero"/><g clip-path="url(#b100fdf8c3)"><path fill="#ff66c4" d="M 36.886719 8.664062 C 36.785156 8.441406 36.546875 8.117188 36.367188 7.789062 C 35.933594 7.011719 36.292969 6.21875 37.054688 6.148438 C 37.632812 6.097656 38.199219 6.667969 37.878906 7.628906 C 37.808594 7.839844 37.929688 7.933594 38.0625 7.75 C 38.828125 6.683594 37.9375 5.511719 37.015625 5.609375 C 36.09375 5.703125 35.421875 7 36.011719 8.0625 C 36.164062 8.339844 36.359375 8.632812 36.507812 8.964844 C 38.800781 14.15625 27.429688 9.917969 25.269531 15.375 C 25.125 15.71875 25.542969 15.847656 25.847656 15.496094 C 28.894531 11.875 33.914062 13.941406 36.902344 11.640625 C 37 11.558594 37.089844 11.472656 37.167969 11.371094 L 37.296875 11.164062 C 37.664062 10.425781 37.246094 9.480469 36.886719 8.664062 Z M 36.886719 8.664062 " fill-opacity="1" fill-rule="nonzero"/></g><g clip-path="url(#e9c4363047)"><path fill="#ff66c4" d="M 48.355469 21.027344 C 48.101562 19.667969 46.636719 18.765625 45.582031 17.976562 C 43.957031 16.820312 42.183594 15.5625 40.519531 14.136719 C 39.523438 13.300781 38.578125 12.410156 37.691406 11.460938 C 37.691406 11.460938 37.691406 12.210938 39.054688 13.789062 C 40.261719 15.152344 42.144531 16.742188 43.808594 18.035156 C 45.476562 19.324219 46.949219 20.386719 47.332031 21.496094 C 47.425781 21.78125 47.34375 22.324219 47.574219 22.464844 C 47.800781 22.601562 48.003906 22.40625 48.15625 22.195312 C 48.425781 21.835938 48.417969 21.363281 48.355469 21.027344 Z M 48.355469 21.027344 " fill-opacity="1" fill-rule="nonzero"/></g><g clip-path="url(#14bec650b2)"><path fill="#ff66c4" d="M 35.402344 29.003906 C 34.726562 28.917969 34.179688 28.875 33.679688 28.871094 C 33.339844 28.871094 33.058594 28.886719 32.796875 28.925781 C 30.253906 29.28125 28.695312 30.496094 28.171875 32.535156 C 28.007812 33.152344 27.953125 33.703125 28.019531 34.171875 C 28.085938 34.636719 28.222656 35.058594 28.421875 35.417969 C 28.832031 36.15625 29.386719 36.46875 30.113281 36.367188 C 30.347656 36.332031 30.460938 36.242188 30.515625 36.144531 C 30.445312 36.144531 30.378906 36.136719 30.308594 36.125 C 29.632812 36.039062 29.148438 35.550781 28.871094 34.683594 C 28.789062 34.457031 28.726562 34.226562 28.695312 33.996094 C 28.585938 33.214844 28.71875 32.417969 29.089844 31.625 C 29.726562 30.214844 30.917969 29.378906 32.632812 29.136719 C 33.097656 29.070312 33.539062 29.042969 33.941406 29.050781 C 34.164062 29.058594 34.351562 29.066406 34.496094 29.074219 C 34.644531 29.078125 34.851562 29.097656 35.113281 29.125 C 35.371094 29.152344 35.550781 29.175781 35.652344 29.1875 C 35.679688 29.191406 35.71875 29.195312 35.757812 29.199219 C 35.726562 29.144531 35.695312 29.09375 35.660156 29.042969 C 35.574219 29.027344 35.488281 29.015625 35.402344 29.003906 Z M 35.402344 29.003906 " fill-opacity="1" fill-rule="nonzero"/></g><g clip-path="url(#17197dd246)"><path fill="#ff66c4" d="M 50.1875 27.675781 C 50.09375 27.59375 49.976562 27.542969 49.824219 27.527344 C 49.039062 27.445312 48.230469 27.871094 47.421875 28.796875 C 46.808594 29.492188 46.246094 30.324219 45.730469 31.273438 C 45.546875 31.621094 45.367188 31.984375 45.191406 32.363281 C 45.191406 32.363281 45.191406 32.367188 45.191406 32.367188 C 44.542969 33.789062 43.925781 35.238281 43.363281 36.675781 C 42.804688 38.105469 42.300781 39.34375 41.867188 40.355469 C 41.484375 41.246094 41.222656 41.644531 41.027344 41.8125 C 41 41.835938 40.96875 41.855469 40.9375 41.871094 C 40.90625 41.886719 40.875 41.894531 40.839844 41.902344 C 40.625 41.9375 40.378906 41.8125 40.242188 41.648438 C 40.121094 41.503906 40.035156 41.332031 39.960938 41.15625 C 39.835938 40.863281 39.746094 40.558594 39.664062 40.25 C 39.542969 39.777344 39.445312 39.300781 39.359375 38.816406 C 39.296875 38.460938 39.242188 38.105469 39.191406 37.75 C 39.179688 37.667969 39.167969 37.589844 39.15625 37.507812 C 39.148438 37.449219 39.140625 37.386719 39.132812 37.324219 C 38.980469 36.207031 38.863281 34.816406 38.773438 33.179688 C 38.75 32.71875 38.734375 32.28125 38.730469 31.859375 C 38.726562 31.761719 38.726562 31.667969 38.726562 31.574219 C 38.726562 31.375 38.730469 31.171875 38.734375 30.976562 C 38.746094 30.546875 38.773438 30.097656 38.8125 29.648438 L 38.824219 29.523438 L 38.949219 29.519531 C 39.566406 29.5 40.195312 29.417969 40.734375 29.101562 C 41.210938 28.820312 41.566406 28.296875 41.554688 27.734375 C 41.554688 27.710938 41.550781 27.683594 41.550781 27.660156 C 41.527344 27.351562 41.371094 26.96875 41.066406 26.84375 C 40.84375 26.753906 40.578125 26.789062 40.351562 26.820312 C 40.113281 26.847656 39.882812 26.914062 39.667969 27.015625 C 39.3125 27.1875 39.011719 27.457031 38.78125 27.773438 C 38.726562 27.847656 38.679688 27.921875 38.632812 28 C 38.679688 27.996094 38.71875 27.996094 38.761719 27.996094 C 38.875 27.992188 38.980469 27.984375 39.082031 27.980469 C 39.125 27.980469 39.167969 27.976562 39.207031 27.976562 C 39.261719 27.886719 39.316406 27.796875 39.382812 27.71875 C 39.71875 27.308594 40.277344 27.058594 40.808594 27.074219 C 41.074219 27.082031 41.25 27.238281 41.277344 27.5 C 41.289062 27.617188 41.28125 27.738281 41.261719 27.832031 C 41.125 28.5625 40.414062 29.113281 39.710938 29.261719 C 39.496094 29.308594 39.269531 29.339844 39.007812 29.359375 L 38.839844 29.371094 L 38.867188 29.132812 C 38.871094 29.109375 38.871094 29.085938 38.875 29.0625 C 38.902344 28.824219 38.953125 28.578125 39.035156 28.347656 C 38.996094 28.351562 38.957031 28.355469 38.917969 28.359375 C 38.78125 28.375 38.65625 28.394531 38.550781 28.421875 C 38.503906 28.429688 38.460938 28.441406 38.421875 28.453125 C 38.324219 28.710938 38.257812 28.980469 38.199219 29.253906 L 38.175781 29.371094 L 38.054688 29.363281 C 38.007812 29.363281 37.964844 29.359375 37.917969 29.355469 C 37.921875 29.375 37.921875 29.390625 37.929688 29.410156 C 37.929688 29.410156 37.929688 29.414062 37.929688 29.414062 C 37.933594 29.445312 37.945312 29.476562 37.953125 29.507812 C 37.964844 29.507812 37.976562 29.511719 37.992188 29.511719 L 38.144531 29.523438 L 38.109375 29.734375 C 38.105469 29.757812 38.101562 29.78125 38.097656 29.808594 C 38.089844 29.839844 38.085938 29.875 38.082031 29.910156 C 38.070312 29.972656 38.0625 30.042969 38.054688 30.109375 C 37.984375 30.597656 37.933594 31.125 37.894531 31.710938 C 37.878906 31.988281 37.871094 32.273438 37.859375 32.546875 C 37.855469 32.6875 37.851562 32.824219 37.84375 32.960938 C 37.835938 33.335938 37.835938 33.710938 37.839844 34.082031 C 37.84375 34.175781 37.84375 34.269531 37.84375 34.363281 C 37.871094 35.585938 37.960938 36.769531 38.121094 37.894531 C 38.308594 39.238281 38.632812 40.421875 39.082031 41.414062 C 39.289062 41.875 39.578125 42.402344 40.058594 42.628906 C 40.183594 42.6875 40.355469 42.734375 40.496094 42.71875 C 40.71875 42.6875 40.894531 42.539062 41.039062 42.371094 C 41.0625 42.34375 41.085938 42.3125 41.109375 42.285156 C 41.113281 42.28125 41.117188 42.277344 41.117188 42.273438 C 41.246094 42.105469 41.359375 41.933594 41.464844 41.753906 C 41.507812 41.679688 41.550781 41.605469 41.59375 41.527344 C 41.632812 41.457031 41.667969 41.386719 41.703125 41.316406 C 41.769531 41.191406 41.835938 41.058594 41.902344 40.925781 C 42.371094 39.976562 42.867188 38.839844 43.371094 37.535156 C 43.953125 36.046875 44.585938 34.535156 45.25 33.042969 C 45.921875 31.542969 46.71875 30.273438 47.621094 29.273438 C 48.480469 28.316406 49.386719 27.847656 50.3125 27.875 C 50.28125 27.792969 50.238281 27.726562 50.1875 27.675781 Z M 50.1875 27.675781 " fill-opacity="1" fill-rule="nonzero"/></g><g clip-path="url(#8322d19bff)"><path fill="#ff66c4" d="M 41.257812 42.265625 L 41.265625 42.246094 C 41.257812 42.253906 41.253906 42.261719 41.25 42.265625 Z M 41.257812 42.265625 " fill-opacity="1" fill-rule="nonzero"/></g><path fill="#ff66c4" d="M 46.304688 28.125 C 45.546875 28.125 44.789062 28.105469 44.042969 28.070312 L 44.042969 28.222656 C 44.617188 28.246094 45.046875 28.351562 45.34375 28.539062 C 45.679688 28.753906 45.851562 29.097656 45.851562 29.558594 C 45.851562 29.957031 45.710938 30.511719 45.425781 31.265625 L 44.304688 34.105469 C 44.5625 33.507812 44.824219 32.914062 45.09375 32.320312 C 45.273438 31.921875 45.464844 31.539062 45.664062 31.175781 L 46.109375 30.058594 C 46.503906 29.054688 47.054688 28.445312 47.738281 28.246094 L 47.738281 28.074219 C 47.34375 28.105469 46.863281 28.125 46.304688 28.125 Z M 46.304688 28.125 " fill-opacity="1" fill-rule="nonzero"/><path fill="#ff66c4" d="M 38.878906 33.171875 C 38.972656 34.902344 39.101562 36.355469 39.261719 37.496094 C 39.273438 37.582031 39.285156 37.664062 39.296875 37.75 L 40.894531 41.769531 C 40.917969 41.757812 40.9375 41.746094 40.957031 41.730469 C 41.167969 41.546875 41.441406 41.070312 41.765625 40.3125 C 41.804688 40.226562 41.84375 40.132812 41.882812 40.039062 L 38.839844 32.148438 C 38.847656 32.480469 38.859375 32.820312 38.878906 33.171875 Z M 38.878906 33.171875 " fill-opacity="1" fill-rule="nonzero"/><path fill="#ff66c4" d="M 39.078125 28.238281 C 39.117188 28.234375 39.15625 28.230469 39.199219 28.226562 C 39.222656 28.226562 39.242188 28.226562 39.265625 28.222656 L 39.265625 28.070312 C 39.226562 28.074219 39.191406 28.074219 39.152344 28.074219 C 39.113281 28.078125 39.070312 28.078125 39.03125 28.082031 C 38.929688 28.085938 38.816406 28.089844 38.703125 28.097656 C 38.660156 28.097656 38.617188 28.097656 38.574219 28.101562 C 38.535156 28.101562 38.496094 28.101562 38.453125 28.105469 C 37.972656 28.117188 37.398438 28.125 36.730469 28.125 C 35.875 28.125 35.171875 28.105469 34.632812 28.070312 L 34.632812 28.226562 C 35.058594 28.28125 35.421875 28.519531 35.714844 28.9375 C 35.742188 28.976562 35.769531 29.015625 35.792969 29.058594 C 35.824219 29.109375 35.855469 29.164062 35.882812 29.21875 C 35.902344 29.257812 35.925781 29.296875 35.945312 29.339844 C 35.984375 29.417969 36.023438 29.503906 36.054688 29.59375 L 36.265625 30.117188 L 37.375 32.910156 L 37.730469 33.800781 C 37.726562 33.519531 37.730469 33.238281 37.734375 32.953125 C 37.742188 32.820312 37.746094 32.691406 37.75 32.5625 L 37.75 32.539062 C 37.757812 32.257812 37.769531 31.976562 37.785156 31.695312 C 37.828125 31.035156 37.890625 30.445312 37.972656 29.898438 C 37.964844 29.878906 37.902344 29.691406 37.878906 29.621094 C 37.878906 29.613281 37.878906 29.609375 37.875 29.601562 C 37.867188 29.5625 37.855469 29.53125 37.847656 29.492188 C 37.84375 29.472656 37.835938 29.449219 37.832031 29.429688 C 37.832031 29.425781 37.832031 29.425781 37.832031 29.421875 C 37.824219 29.394531 37.820312 29.371094 37.816406 29.34375 C 37.8125 29.316406 37.804688 29.289062 37.804688 29.261719 C 37.800781 29.253906 37.800781 29.246094 37.800781 29.234375 C 37.792969 29.183594 37.789062 29.136719 37.789062 29.089844 C 37.789062 28.773438 37.933594 28.539062 38.207031 28.417969 C 38.246094 28.402344 38.292969 28.386719 38.335938 28.371094 C 38.378906 28.355469 38.421875 28.34375 38.46875 28.332031 C 38.507812 28.324219 38.550781 28.3125 38.597656 28.304688 C 38.707031 28.28125 38.824219 28.261719 38.960938 28.25 C 38.996094 28.246094 39.035156 28.242188 39.078125 28.238281 Z M 39.078125 28.238281 " fill-opacity="1" fill-rule="nonzero"/></svg>